<svg width="105.77084960937499px" height="177.2px" xmlns="http://www.w3.org/2000/svg" viewBox="197.1145751953125 -13.599999999999994 105.77084960937499 177.2" style="background: rgb(212, 212, 255);" preserveAspectRatio="xMidYMid"><defs><filter id="editing-vr"><feFlood flood-color="#f00" flood-opacity="0.7" result="c1"></feFlood><feFlood flood-color="#0000ff" flood-opacity="0.7" result="c3"></feFlood><feComposite operator="in" in="c1" in2="SourceAlpha" result="text-c1"></feComposite><feComposite operator="in" in="c3" in2="SourceAlpha" result="text-c3"></feComposite><feOffset in="text-c1" dx="-3" dy="-1" result="text1"></feOffset><feOffset in="text-c3" dx="3" dy="1" result="text3"></feOffset><feBlend in="SourceGraphic" in2="text1" mode="multiply" result="text4"></feBlend><feBlend in="text4" in2="text3" mode="multiply"></feBlend></filter></defs><g filter="url(#editing-vr)"><g transform="translate(221.8340082168579, 111.6300048828125)"><path d="M51.48-10.99L51.48-10.99L51.48-10.99Q51.48-6.63 55.94-5.35L55.94-5.35L55.94-5.35Q54.85-1.68 50.59 0.30L50.59 0.30L50.59 0.30Q47.03 1.98 43.11 1.98L43.11 1.98L43.11 1.98Q39.20 1.98 37.17 0.94L37.17 0.94L37.17 0.94Q35.15-0.10 34.06-1.78L34.06-1.78L34.06-1.78Q32.27-4.36 32.27-9.21L32.27-9.21L32.27-9.21Q32.27-12.08 33.86-20.00L33.86-20.00L35.24-27.52L35.24-27.52Q36.93-36.14 36.93-39.30L36.93-39.30L36.93-39.30Q36.93-44.85 33.86-44.85L33.86-44.85L33.86-44.85Q30.00-44.85 27.52-39.20L27.52-39.20L27.52-39.20Q26.53-37.03 25.84-33.76L25.84-33.76L19.11 0L-0.79 1.98L13.17-69.30L33.07-71.28L32.27-67.32L32.27-67.32Q29.50-52.07 27.13-46.93L27.13-46.93L27.13-46.93Q32.67-52.47 42.87-52.47L42.87-52.47L42.87-52.47Q53.66-52.47 55.64-45.34L55.64-45.34L55.64-45.34Q56.33-43.07 56.33-41.09L56.33-41.09L56.33-41.09Q56.33-39.11 56.18-37.57L56.18-37.57L56.18-37.57Q56.03-36.04 55.54-33.26L55.54-33.26L54.25-26.14L51.98-14.95L51.98-14.95Q51.48-12.67 51.48-10.99Z" fill="#444"></path></g></g><style>text {
  font-size: 64px;
  font-family: Arial Black;
  dominant-baseline: central;
  text-anchor: middle;
}</style></svg>